<svg width="256" height="256" viewBox="0 0 256 256" xmlns="http://www.w3.org/2000/svg" role="img" aria-label="OSW">
  <!-- 双刃 v2 · 极光：青 → 靛 → 品红 -->
  <defs>
    <linearGradient id="os" gradientUnits="userSpaceOnUse" x1="18" y1="14" x2="238" y2="242">
      <stop stop-color="#22D3EE"/>
      <stop offset="0.5" stop-color="#6366F1"/>
      <stop offset="1" stop-color="#EC4899"/>
    </linearGradient>
  </defs>
  <g fill="url(#os)" transform="translate(-6.4 -6.4) scale(1.05)">
    <path d="M57.53 26.93A11 11 0 0 1 73.67 21.15L196.26 96.23A9 9 0 0 1 191.84 112.92L40.48 117.56A10 10 0 0 1 30.74 104.31Z"/>
    <path d="M198.47 229.07A11 11 0 0 1 182.33 234.85L59.74 159.77A9 9 0 0 1 64.16 143.08L215.52 138.44A10 10 0 0 1 225.26 151.69Z"/>
  </g>
</svg>
